<svg version="1.1" id="Layer_1" xmlns="http://www.w3.org/2000/svg" xmlns:xlink="http://www.w3.org/1999/xlink" x="0px" y="0px"
	 width="100%" viewBox="0 0 496 336" enable-background="new 0 0 496 336" xml:space="preserve">
<path fill="#000000" opacity="1.000000" stroke="none" 
	d="
M226.746490,197.413574 
	C216.528397,191.873596 209.346786,184.014008 205.171509,173.584290 
	C203.998764,170.654800 202.244690,169.573425 199.247116,169.281219 
	C192.598495,168.633102 186.235245,166.717194 179.958527,164.441772 
	C176.815155,163.302216 175.474075,161.365204 175.656296,158.059525 
	C176.303696,146.313858 180.165771,135.601257 186.299805,125.714844 
	C187.875534,123.175224 188.131592,121.697144 185.970428,119.345924 
	C177.731888,110.382950 173.538849,99.392647 171.044281,87.684212 
	C169.526779,80.561638 171.496384,78.480530 178.675140,77.598701 
	C187.682373,76.492271 196.549835,76.380478 205.392319,78.627075 
	C209.428406,79.652519 210.890640,77.740463 210.676224,73.850800 
	C210.222122,65.612663 211.852905,57.635391 214.035629,49.765045 
	C215.354752,45.008625 217.697586,43.584908 222.198944,45.194122 
	C237.083633,50.515366 250.114380,58.462215 259.164581,71.930084 
	C262.653503,77.122025 264.079681,83.089134 265.993073,89.498482 
	C273.444092,85.075768 281.234497,82.440079 289.505615,81.222816 
	C296.306213,80.221962 303.133545,80.601486 309.935486,80.869003 
	C313.649689,81.015083 315.749237,83.498619 315.258057,87.300522 
	C312.970184,105.009590 308.421814,121.674782 292.775696,132.757782 
	C290.309875,134.504440 290.449158,136.168976 291.444489,138.675278 
	C302.836823,167.362045 284.948944,196.354736 257.613373,201.754883 
	C247.020676,203.847458 236.769928,202.549973 226.746490,197.413574 
M242.164261,192.558487 
	C244.994446,192.628281 247.826508,192.801788 250.654526,192.751007 
	C269.040527,192.420959 285.151642,175.554230 284.874573,157.220016 
	C284.820374,153.634750 283.825226,152.123123 280.027405,152.230759 
	C272.202789,152.452515 264.366425,152.382263 256.537476,152.262726 
	C253.968292,152.223511 252.189575,153.102127 250.515457,155.026337 
	C244.418411,162.034180 236.686127,166.274445 227.678085,168.515793 
	C223.737228,169.496338 219.482498,169.254929 215.403519,171.325562 
	C220.664841,182.885086 229.493073,189.457352 242.164261,192.558487 
M244.542709,145.985107 
	C248.408173,140.190262 249.628296,133.915726 248.140656,126.521759 
	C240.580902,129.189926 234.216019,133.499771 227.266663,136.515945 
	C221.303238,139.104202 216.325638,142.232895 217.067917,149.890244 
	C217.141815,150.652679 216.638397,151.480347 216.366089,152.264969 
	C215.937531,153.499786 215.071915,154.233963 213.741928,154.115631 
	C212.100418,153.969559 211.574646,152.830505 211.493866,151.334030 
	C211.398819,149.572647 212.166519,147.703659 210.569427,145.576584 
	C206.811203,147.467407 202.995178,149.383514 199.182922,151.307144 
	C197.585388,152.113220 195.891068,152.622803 194.788040,150.764572 
	C193.478760,148.558868 195.080429,147.417542 196.804398,146.498245 
	C202.386444,143.521667 207.978058,140.563034 213.560669,137.587524 
	C216.680023,135.924927 219.939087,134.470383 223.153503,131.723328 
	C219.031403,130.304810 215.569717,129.161285 212.145950,127.913704 
	C210.604584,127.352051 209.528610,126.250084 210.077744,124.467171 
	C210.647537,122.617111 212.274246,122.509583 213.779419,122.903488 
	C217.157639,123.787575 220.713760,124.398636 223.792480,125.933289 
	C229.700439,128.878220 234.681671,127.197029 239.668396,123.948151 
	C243.313721,121.573196 243.399963,119.897957 239.452347,118.123314 
	C230.267929,113.994484 220.890656,113.157394 211.480606,117.459328 
	C196.593002,124.265396 190.003128,137.111237 186.450623,152.115356 
	C185.781342,154.942062 187.214111,156.336288 189.828598,157.238358 
	C195.232178,159.102707 200.855209,160.009857 206.452820,160.326309 
	C220.881454,161.142014 234.439209,159.011124 244.542709,145.985107 
M238.562973,106.801170 
	C240.425888,107.334641 242.210648,108.447098 244.920090,107.419174 
	C240.783432,100.051338 239.858047,90.531265 229.116196,88.755592 
	C227.288498,88.453468 224.886368,87.700897 225.239594,85.026108 
	C225.556946,82.622986 227.690659,82.716972 229.549316,82.647415 
	C230.219162,82.622345 230.878067,82.472992 231.275543,81.329231 
	C230.558411,77.506653 228.178146,74.048233 226.404785,70.335808 
	C225.545746,68.537445 224.204834,66.435135 226.723755,65.149315 
	C229.172592,63.899281 230.272278,66.064445 231.202286,67.863861 
	C234.181534,73.628197 237.023636,79.465309 240.093094,85.180664 
	C243.979263,92.416756 247.143707,100.067245 251.847702,107.168190 
	C265.338226,87.867920 243.793335,62.608543 222.847061,57.233299 
	C219.675735,68.020813 219.188370,78.818260 223.101700,89.464752 
	C225.838562,96.910568 229.555573,103.798927 238.562973,106.801170 
M280.518005,94.001755 
	C265.887726,99.919113 257.756317,111.635483 261.376404,121.903893 
	C265.082977,119.855202 268.162994,117.048660 271.227936,114.278893 
	C276.694855,109.338432 285.368591,106.438538 282.924927,96.264877 
	C282.652832,95.132019 283.676361,94.113983 285.011749,93.866051 
	C286.634216,93.564827 287.432129,94.457802 288.020935,95.827087 
	C288.435974,96.792244 287.770721,98.281166 289.624603,98.793411 
	C290.815308,97.894890 292.199432,96.977081 293.433563,95.889114 
	C295.233643,94.302261 297.475891,92.194206 299.414093,94.418846 
	C301.785614,97.140854 298.633484,98.727890 296.834473,100.291809 
	C292.342346,104.196899 287.812531,108.058655 283.230957,111.995293 
	C284.743713,113.948997 289.123047,113.376183 287.663208,117.050560 
	C286.484558,120.017151 283.678131,118.544899 281.486084,118.351326 
	C275.247101,117.800385 269.353790,121.411972 266.335876,127.702972 
	C288.264191,135.229446 303.361877,109.734291 304.083527,90.714920 
	C296.222809,89.903702 288.703918,91.563911 280.518005,94.001755 
M182.930069,92.856361 
	C184.525711,98.670486 187.030975,104.055336 190.568512,108.944878 
	C195.018661,115.095833 194.991776,115.030853 201.710266,111.121666 
	C203.990524,109.794876 206.493835,108.851517 208.894852,107.732178 
	C211.830597,106.363556 215.311432,106.398987 217.977448,104.481400 
	C215.214462,88.189987 198.428696,85.625237 182.557587,87.924438 
	C181.565948,89.350044 182.380539,90.753395 182.930069,92.856361 
M279.665710,140.321259 
	C274.027008,140.287231 268.380402,140.424438 262.752197,140.163727 
	C258.430847,139.963547 256.677704,141.784454 256.977814,146.369080 
	C265.687653,146.369080 274.312561,146.369080 283.043121,146.369080 
	C283.152954,143.640137 282.548279,141.724655 279.665710,140.321259 
z"/>
<path fill="#000000" opacity="1.000000" stroke="none" 
	d="
M321.640808,233.090393 
	C337.034485,239.886597 346.571198,255.488052 345.196838,271.197571 
	C343.682709,288.504425 332.145447,302.483246 315.464935,305.696228 
	C300.443665,308.589600 286.879456,305.191803 276.986023,292.587311 
	C267.424500,280.405640 265.737457,266.767944 271.890472,252.684631 
	C278.223999,238.188156 290.136749,231.036041 305.678986,230.172592 
	C310.941895,229.880219 316.290588,230.827881 321.640808,233.090393 
M288.824310,270.863983 
	C290.795197,281.041626 296.844604,287.001007 305.824921,287.611603 
	C313.676239,288.145447 321.163971,282.767548 323.936615,274.603271 
	C326.718719,266.411163 323.443481,256.799713 316.208771,252.254837 
	C310.559082,248.705658 304.611237,248.191345 298.685455,251.413849 
	C291.340576,255.408081 288.532990,262.007904 288.824310,270.863983 
z"/>
<path fill="#000000" opacity="1.000000" stroke="none" 
	d="
M393.242065,294.698059 
	C389.643829,289.098236 386.250244,283.797455 382.699951,278.251923 
	C378.609192,280.604706 376.226898,283.350830 376.324188,287.887543 
	C376.420593,292.380920 376.220184,296.881409 376.348236,301.373138 
	C376.433289,304.357544 374.996429,305.619263 372.240356,305.822235 
	C371.908447,305.846649 371.577301,305.907379 371.245789,305.907501 
	C353.252533,305.913330 356.201721,307.205322 356.058014,291.771149 
	C355.892151,273.956177 356.014496,256.138245 356.060791,238.321732 
	C356.077850,231.759872 356.736969,231.084106 363.139435,231.061920 
	C378.609833,231.008301 376.151093,230.132690 376.339355,244.020004 
	C376.399811,248.478027 376.348846,252.937531 376.348846,257.899841 
	C379.227173,256.791718 380.104095,254.485886 381.458527,252.784073 
	C386.225372,246.794388 390.845184,240.687469 395.502350,234.610916 
	C396.417908,233.416336 397.229919,231.911926 398.776001,231.684280 
	C405.821442,230.646942 412.866272,230.601837 419.711884,231.699081 
	C420.453827,234.187302 419.094391,235.351669 418.118622,236.641174 
	C412.193115,244.472015 406.388672,252.400681 400.247589,260.059174 
	C397.769653,263.149384 397.521454,265.408478 399.892883,268.787079 
	C406.776337,278.593994 413.279938,288.668945 419.854279,298.690063 
	C421.008881,300.449982 422.710114,302.004059 422.736267,305.028656 
	C416.162903,306.709351 409.382141,306.362854 402.808228,305.360718 
	C397.421875,304.539612 396.479645,298.574677 393.242065,294.698059 
z"/>
<path fill="#000000" opacity="1.000000" stroke="none" 
	d="
M146.502716,269.609802 
	C150.933701,258.241577 155.339249,247.280212 159.437973,236.205276 
	C160.789658,232.552963 162.776306,230.993561 166.746597,230.952957 
	C179.128647,230.826355 178.878143,230.789963 183.298386,242.583466 
	C190.361542,261.428406 197.789215,280.136810 205.072220,298.899261 
	C207.276199,304.577118 206.545258,305.751862 200.606674,305.899261 
	C198.942856,305.940613 197.277115,305.906281 195.612244,305.902405 
	C187.497726,305.883484 187.392670,305.920685 184.642715,298.262543 
	C183.577271,295.295441 181.910156,294.070496 178.752838,294.172363 
	C173.264572,294.349396 167.755966,294.422760 162.275864,294.145111 
	C158.461578,293.951843 156.125427,295.356384 155.414352,299.013458 
	C154.301682,304.736053 150.763916,306.565430 145.310425,305.998840 
	C142.839386,305.742096 140.318756,306.005829 137.824997,305.914185 
	C134.271942,305.783630 133.152145,304.218872 134.536209,300.711578 
	C138.565811,290.500366 142.429184,280.223511 146.502716,269.609802 
M165.215195,271.574432 
	C163.420578,275.505432 164.811050,277.142975 168.971756,276.814392 
	C171.235840,276.635559 173.580597,277.244904 176.293808,275.921906 
	C174.827377,269.850189 172.717834,263.982941 169.972702,257.116394 
	C168.204636,262.439514 166.814194,266.625641 165.215195,271.574432 
z"/>
<path fill="#000000" opacity="1.000000" stroke="none" 
	d="
M82.438690,270.559509 
	C84.315453,279.776031 89.213272,285.673462 98.340393,287.412476 
	C104.323578,288.552490 106.687050,286.599213 106.781975,280.646576 
	C106.803215,279.314972 106.864799,277.981720 106.822845,276.651917 
	C106.711166,273.111938 108.270309,271.561432 111.927017,271.618134 
	C128.666763,271.877502 126.080276,269.672333 126.312332,285.339569 
	C126.351776,288.002563 126.043495,290.702240 126.380165,293.322754 
	C127.079651,298.767181 124.530197,301.673157 119.648087,303.374939 
	C95.665634,311.734406 72.382149,304.076630 64.449005,280.391113 
	C59.410385,265.347595 64.373001,248.770020 76.343437,238.854477 
	C88.217438,229.018799 105.326553,227.309128 118.950706,234.596909 
	C124.622238,237.630707 124.866005,238.643707 121.213173,243.995636 
	C120.744034,244.682968 120.277870,245.372330 119.807022,246.058472 
	C114.731400,253.455017 114.731232,253.454880 106.339256,250.309265 
	C94.165359,245.746002 82.459076,255.449493 82.438690,270.559509 
z"/>
<path fill="#000000" opacity="1.000000" stroke="none" 
	d="
M261.300171,287.582092 
	C264.904419,292.841003 263.095123,298.339447 262.852631,303.650940 
	C262.764404,305.583679 260.431061,305.818909 258.819458,305.827179 
	C245.347717,305.896332 231.875427,305.875610 218.403351,305.851593 
	C215.186386,305.845886 213.654312,304.368805 213.666504,300.935028 
	C213.743240,279.311371 213.727951,257.687134 213.653778,236.063416 
	C213.642380,232.740479 214.936996,231.067886 218.297775,231.065170 
	C236.023163,231.050888 233.886658,229.248840 233.950378,245.198441 
	C233.999573,257.507080 234.045776,269.818176 233.840576,282.123932 
	C233.775620,286.019165 234.946060,287.297455 238.965424,287.170959 
	C246.261032,286.941315 253.588837,286.595001 261.300171,287.582092 
z"/>
</svg>